HIERARCHY
ROOT Hips
{
	OFFSET 0.00000 0.00000 0.00000
	CHANNELS 6 Xposition Yposition Zposition Zrotation Yrotation Xrotation 
	JOINT LHipJoint
	{
		OFFSET 0 0 0
		CHANNELS 3 Zrotation Yrotation Xrotation
		JOINT LeftHip
		{
			OFFSET 1.73240 -1.89999 0.57994
			CHANNELS 3 Zrotation Yrotation Xrotation
			JOINT LeftKnee
			{
				OFFSET 2.43106 -6.67930 0.00000
				CHANNELS 3 Zrotation Yrotation Xrotation
				JOINT LeftAnkle
				{
					OFFSET 2.78854 -7.66147 0.00000
					CHANNELS 3 Zrotation Yrotation Xrotation
					JOINT LeftToe
					{
						OFFSET 0.17314 -0.47571 2.01064
						CHANNELS 3 Zrotation Yrotation Xrotation
						End Site
						{
							OFFSET 0.00000 -0.00000 1.04147
						}
					}
				}
			}
		}
	}
	JOINT RHipJoint
	{
		OFFSET 0 0 0
		CHANNELS 3 Zrotation Yrotation Xrotation
		JOINT RightHip
		{
			OFFSET -1.57078 -1.89998 0.57994
			CHANNELS 3 Zrotation Yrotation Xrotation
			JOINT RightKnee
			{
				OFFSET -2.50166 -6.87326 0.00000
				CHANNELS 3 Zrotation Yrotation Xrotation
				JOINT RightAnkle
				{
					OFFSET -2.77304 -7.61886 0.00000
					CHANNELS 3 Zrotation Yrotation Xrotation
					JOINT RightToe
					{
						OFFSET -0.23513 -0.64602 2.11039
						CHANNELS 3 Zrotation Yrotation Xrotation
						End Site
						{
							OFFSET -0.00000 -0.00000 1.10597
						}
					}
				}
			}
		}
	}
	JOINT lowerback
	{
		OFFSET 0 0 0
		CHANNELS 3 Zrotation Yrotation Xrotation
		JOINT Chest
		{
			OFFSET -0.00908 2.00015 -0.35323
			CHANNELS 3 Zrotation Yrotation Xrotation
			JOINT Chest2
			{
				OFFSET 0.05647 2.02258 0.04270
				CHANNELS 3 Zrotation Yrotation Xrotation
				JOINT lowerneck
				{
					OFFSET 0 0 0
					CHANNELS 3 Zrotation Yrotation Xrotation
					JOINT Neck
					{
						OFFSET -0.02074 1.73711 0.13117
						CHANNELS 3 Zrotation Yrotation Xrotation
						JOINT Head
						{
							OFFSET -0.02359 1.73615 -0.24320
							CHANNELS 3 Zrotation Yrotation Xrotation
							End Site
							{
								OFFSET -0.00579 1.75982 -0.09688
							}
						}
					}
				}
				JOINT LeftCollar
				{
					OFFSET 0 0 0
					CHANNELS 3 Zrotation Yrotation Xrotation
					JOINT LeftShoulder
					{
						OFFSET 3.20537 1.11432 -0.27680
CHANNELS 3 Zrotation Xrotation Yrotation
						JOINT LeftElbow
						{
OFFSET 0 -5.059230 -0.000000
CHANNELS 3 Zrotation Xrotation Yrotation
							JOINT LeftWrist
							{
OFFSET 0 -3.519960 0.000000
CHANNELS 3 Zrotation Xrotation Yrotation
								JOINT lhand
								{
									OFFSET 0 0 0
CHANNELS 3 Zrotation Xrotation Yrotation
									JOINT LFingers
									{
OFFSET 0 -0.652380 0.000000
CHANNELS 3 Zrotation Xrotation Yrotation
										End Site
										{
OFFSET 0 -0.525960 0.000000
										}
									}
								}
								JOINT LThumb
								{
OFFSET 0 0.000000 0.000000
CHANNELS 3 Zrotation Xrotation Yrotation
									End Site
									{
OFFSET 0 -0.533990 0.533990
									}
								}
							}
						}
					}
				}
				JOINT RightCollar
				{
					OFFSET 0 0 0
					CHANNELS 3 Zrotation Yrotation Xrotation
					JOINT RightShoulder
					{
						OFFSET -2.96983 1.42602 -0.37449
CHANNELS 3 Zrotation Xrotation Yrotation
						JOINT RightElbow
						{
OFFSET 0 -5.408670 0.000000
CHANNELS 3 Zrotation Xrotation Yrotation
							JOINT RightWrist
							{
OFFSET 0 -3.129640 0.000000
CHANNELS 3 Zrotation Xrotation Yrotation
								JOINT rhand
								{
									OFFSET 0 0 0
CHANNELS 3 Zrotation Xrotation Yrotation
									JOINT RFingers
									{
OFFSET 0 -0.832710 0.000000
CHANNELS 3 Zrotation Xrotation Yrotation
										End Site
										{
OFFSET 0 -0.671350 0.000000
										}
									}
								}
								JOINT RThumb
								{
OFFSET 0 0.000000 0.000000
CHANNELS 3 Zrotation Xrotation Yrotation
									End Site
									{
OFFSET 0 -0.681600 0.681600
									}
								}
							}
						}
					}
				}
			}
		}
	}
}
MOTION
Frames: 5
Frame Time: 0.008333333333333333
0.029400 17.630400 -26.017400 -2.232400 -6.273300 -1.812100 0.000000 0.000000 0.000000 -13.296000 -9.712800 -25.378900 4.817700 13.175500 40.029000 0.398400 2.079700 -12.864700 0.389900 -4.009600 -11.103800 0.000000 0.000000 0.000000 28.197900 3.991200 4.231200 -1.622600 -8.031400 22.809400 -1.086000 -11.036500 -26.528300 -0.599600 -4.956900 13.785600 0.855700 -1.896300 18.824400 3.871300 -1.935500 0.629100 4.274800 -0.860900 -9.787400 -5.710900 -7.350700 -8.424000 -2.449500 -8.871100 30.587900 -1.023700 -4.987500 11.501800 0.000000 0.000000 0.000000 0.323100 19.701100 -11.432400 26.948700 -38.130300 9.467500 14.842800 3.687200 -51.421000 0.000000 0.000000 0.000000 -7.125000 0.000000 0.000000 -59.333200 76.285900 46.578500 0.000000 0.000000 0.000000 -27.773200 -5.280000 -28.921600 -86.522200 -59.954200 -56.988600 -12.819900 3.525000 -7.582700 0.000000 0.000000 0.000000 7.125000 0.000000 -0.000000 10.180200 22.243800 5.656400
0.032798 17.629503 -25.978167 -2.313111 -6.541010 -1.580610 0.000000 0.000000 0.000000 -13.068869 -9.794664 -25.772965 4.649548 12.976384 39.282796 0.370449 2.402927 -12.630710 0.380092 -3.959340 -10.962444 0.000000 0.000000 0.000000 28.254699 4.172494 4.300564 -1.591444 -7.957292 22.584513 -1.069909 -11.053617 -26.421434 -0.582868 -4.888242 13.590138 0.924615 -1.784305 18.651504 3.902969 -1.777156 0.668910 4.217424 -0.790639 -9.657968 -5.938287 -7.483978 -8.111030 -2.208074 -9.102333 30.228838 -0.902218 -5.087443 11.331468 0.000000 0.000000 0.000000 0.325792 19.518203 -11.543497 26.688939 -37.880283 9.307746 14.934793 3.912728 -51.502672 0.000000 0.000000 0.000000 -7.125000 0.000000 0.000000 -59.595974 76.354174 46.880251 0.000000 0.000000 0.000000 -27.619792 -5.219291 -27.388421 -85.262693 -59.911633 -55.898655 -13.375578 4.968814 -7.702772 0.000000 0.000000 0.000000 7.125000 0.000000 0.000000 9.772288 22.102252 5.454463
0.035518 17.629564 -25.936309 -2.395993 -6.862947 -1.540325 0.000000 0.000000 0.000000 -12.857256 -9.817083 -25.901736 4.479449 12.770920 38.519439 0.346195 2.753972 -12.474392 0.358518 -3.844161 -10.639082 0.000000 0.000000 0.000000 28.324165 4.276652 4.589289 -1.557608 -7.876103 22.338523 -1.061351 -11.036707 -26.342358 -0.570848 -4.838740 13.449270 0.930134 -1.677530 18.811247 3.947503 -1.623750 0.633221 4.232191 -0.714030 -9.796172 -6.119770 -7.554791 -7.750408 -2.094709 -9.225847 30.058722 -0.824861 -5.151441 11.213755 0.000000 0.000000 0.000000 0.251744 19.592277 -11.551896 26.468536 -37.667339 9.172566 14.981419 4.074549 -51.431313 0.000000 0.000000 0.000000 -7.125000 0.000000 0.000000 -59.296901 76.343365 46.606612 0.000000 0.000000 0.000000 -27.508395 -4.960973 -25.659100 -83.958749 -59.858147 -54.770735 -13.755316 6.286485 -7.858873 0.000000 0.000000 0.000000 7.125000 0.000000 0.000000 9.490463 21.930064 5.330763
0.037377 17.630846 -25.891114 -2.481640 -7.253871 -1.743287 0.000000 0.000000 0.000000 -12.665385 -9.763874 -25.693004 4.306873 12.557380 37.734258 0.326642 3.140408 -12.416888 0.321977 -3.646391 -10.084173 0.000000 0.000000 0.000000 28.409748 4.282678 5.157083 -1.520362 -7.785905 22.065684 -1.062377 -10.976511 -26.298637 -0.564822 -4.813610 13.377855 0.855000 -1.577395 19.394171 4.008405 -1.476624 0.501481 4.338737 -0.629345 -10.274857 -6.242855 -7.546137 -7.329162 -2.144264 -9.212320 30.128983 -0.803642 -5.169711 11.162982 0.000000 0.000000 0.000000 0.080066 19.993265 -11.429645 26.298204 -37.501559 9.068648 14.970329 4.155324 -51.165270 0.000000 0.000000 0.000000 -7.125000 0.000000 0.000000 -58.283051 76.231947 45.600968 0.000000 0.000000 0.000000 -27.450442 -4.451259 -23.680250 -82.598274 -59.790771 -53.594503 -13.911224 7.443678 -8.060810 0.000000 0.000000 0.000000 7.125000 0.000000 0.000000 9.369045 21.718896 5.306595
0.037318 17.626824 -25.861211 -2.562886 -7.224128 -1.726690 0.000000 0.000000 0.000000 -12.437286 -10.128171 -25.753318 4.132830 12.333063 36.923572 0.291854 3.545804 -12.139600 0.294803 -3.489362 -9.644546 0.000000 0.000000 0.000000 28.480998 4.132682 5.364306 -1.482156 -7.691587 21.781447 -1.052230 -11.029508 -26.266766 -0.548187 -4.742887 13.176770 0.992147 -1.646881 19.341948 3.929423 -1.550525 0.563401 4.187353 -0.675402 -10.177476 -6.218383 -7.510341 -6.880774 -2.037232 -9.226669 29.987247 -0.744447 -5.164395 11.023957 0.000000 0.000000 0.000000 0.210613 19.955135 -11.358403 26.123358 -37.329967 8.962531 14.761517 4.115287 -51.060609 0.000000 0.000000 0.000000 -7.125000 0.000000 0.000000 -58.016638 76.106705 45.240853 0.000000 0.000000 0.000000 -27.111594 -4.341221 -21.990816 -80.982126 -59.684065 -52.198937 -14.031751 8.630326 -8.288929 0.000000 0.000000 0.000000 7.125000 0.000000 0.000000 9.273188 21.482279 5.301104
